nColumns=19
nRows=15
DataType=double
version=2
endheader
time	ground_force_1_vx	ground_force_1_vy	ground_force_1_vz	ground_force_1_px	ground_force_1_py	ground_force_1_pz	ground_moment_1_mx	ground_moment_1_my	ground_moment_1_mz	ground_force_2_vx	ground_force_2_vy	ground_force_2_vz	ground_force_2_px	ground_force_2_py	ground_force_2_pz	ground_moment_2_mx	ground_moment_2_my	ground_moment_2_mz
2.92	-2.93787422676455	684.7679831822843	-0.5373586502148253	0.3532856089921616	0.00430649656441136	0.1358139619030486	0.0393177377550908	4.695108344991787	0.01791030552931643	0	0	0	0.8952113342285156	0.002086591646075249	0.2021185622215271	0	0	0
2.921	-3.045646687539271	684.9155819791699	-0.7512931050818348	0.3532517915489077	0.004306718021712783	0.1358301458447995	0.03930095328149328	4.693104035320032	0.01790265974226344	0	0	0	0.8952113342285156	0.002086591646075249	0.2021185622215271	0	0	0
2.922	-3.153419657847875	685.0631197425607	-0.9652275543565216	0.353217974105654	0.004306939479014206	0.1358463297865504	0.03928416471910802	4.6910992373877	0.01789501209265575	0	0	0	0.8952113342285156	0.002086591646075249	0.2021185622215271	0	0	0
2.923	-3.261193072242942	685.2107185474081	-1.179162002934552	0.3531841680557776	0.004307160870295992	0.1358625060236604	0.03926738024551049	4.689094927715944	0.01788736630560277	0	0	0	0.8952113342285156	0.002086591646075249	0.2021185622215271	0	0	0
2.924	-3.368965533017663	685.3583173442937	-1.393096457801561	0.3531503506125238	0.004307382327597416	0.1358786899654113	0.03925059168312524	4.687090129783612	0.01787971865599508	0	0	0	0.8952113342285156	0.002086591646075249	0.2021185622215271	0	0	0
2.925	-3.47674681523606	685.5058550197371	-1.606989605258191	0.3531165445626473	0.004307603718879202	0.1358948662025214	0.03923383583104176	4.6850892379359	0.01787208590682501	0	0	0	0.8952113342285156	0.002086591646075249	0.2021185622215271	0	0	0
2.926	-3.6911532464238	685.3494269807408	-1.283383591705238	0.3530682021660567	0.004307979362215477	0.1359025169658478	0.03954275192099076	4.72197830110775	0.01801280563969398	0	0	0	0.8952113342285156	0.002086591646075249	0.2021185622215271	0	0	0
2.927	-3.905559166513076	685.1930599743167	-0.959777345332947	0.3530198597444328	0.004308355020312791	0.1359101639145878	0.03985167209972749	4.758867852540179	0.01815352723511765	0	0	0	0.8952113342285156	0.002086591646075249	0.2021185622215271	0	0	0
2.928	-4.119965086602353	685.0366929678927	-0.6361710989606557	0.3529715211372901	0.004308730646562867	0.1359178108381718	0.04016059227846421	4.795757403972607	0.01829424883054132	0	0	0	0.8952113342285156	0.002086591646075249	0.2021185622215271	0	0	0
2.929	-4.334371517790093	684.8802649288964	-0.3125650854077029	0.3529231787406996	0.004309106289899144	0.1359254616014983	0.04046951245720094	4.832646955405036	0.01843497042596499	0	0	0	0.8952113342285156	0.002086591646075249	0.2021185622215271	0	0	0
2.93	-4.548746037249789	684.7238977003256	0.01103046331522739	0.3528748401585903	0.004309481901388183	0.1359331123396688	0.04077839174806044	4.869531624231687	0.01857567339584163	0	0	0	0.8952113342285156	0.002086591646075249	0.2021185622215271	0	0	0
2.931	-4.331267094257447	684.8235588056141	0.2251869870588044	0.3529120999642233	0.004309017847019282	0.1359729672864259	0.04052293655757251	4.839026568114209	0.01845930656570538	0	0	0	0.8952113342285156	0.002086591646075249	0.2021185622215271	0	0	0
2.932	-4.113787641731228	684.9232809443974	0.4393435052100596	0.3529493520908268	0.004308553885866929	0.1360128146543217	0.04026748136708459	4.808521511996731	0.01834293973556912	0	0	0	0.8952113342285156	0.002086591646075249	0.2021185622215271	0	0	0
2.933	-3.896308700303474	685.0229420506085	0.6534997905419766	0.3529866080819783	0.004308089863345264	0.1360526696262347	0.04001202617659666	4.778016455879252	0.01822657290543286	0	0	0	0.8952113342285156	0.002086591646075249	0.2021185622215271	0	0	0
2.934	-3.678830711713769	685.1226031643201	0.8676562013687028	0.3530238602586486	0.004307625872670837	0.1360925246233036	0.03975657098610873	4.747511399761773	0.01811020607529661	0	0	0	0.8952113342285156	0.002086591646075249	0.2021185622215271	0	0	0
